<svg xmlns="http://www.w3.org/2000/svg" viewBox="0 0 116.5 116.5"><defs><style>.cls-1{fill:#fff;}</style></defs><g id="Layer_2" data-name="Layer 2"><g id="Layer_4" data-name="Layer 4"><path class="cls-1" d="M58.25,116.5A58.25,58.25,0,1,1,116.5,58.25,58.31,58.31,0,0,1,58.25,116.5Zm0-115.06a56.81,56.81,0,1,0,56.81,56.81A56.87,56.87,0,0,0,58.25,1.44Z"/><path class="cls-1" d="M58.25,116.17a49.39,49.39,0,1,1,49.38-49.38A49.44,49.44,0,0,1,58.25,116.17Zm0-98.19a48.81,48.81,0,1,0,48.81,48.81A48.86,48.86,0,0,0,58.25,18Z"/><path class="cls-1" d="M58.25,116.26a42.19,42.19,0,1,1,42.19-42.19A42.24,42.24,0,0,1,58.25,116.26Zm0-83.8A41.61,41.61,0,1,0,99.86,74.07,41.66,41.66,0,0,0,58.25,32.46Z"/><path class="cls-1" d="M58.25,116.46A26.34,26.34,0,1,1,84.58,90.12,26.37,26.37,0,0,1,58.25,116.46Zm0-52.09A25.76,25.76,0,1,0,84,90.12,25.79,25.79,0,0,0,58.25,64.37Z"/><path class="cls-1" d="M58.25,116.4a30.81,30.81,0,1,1,30.8-30.8A30.84,30.84,0,0,1,58.25,116.4Zm0-61A30.23,30.23,0,1,0,88.48,85.6,30.26,30.26,0,0,0,58.25,55.37Z"/><path class="cls-1" d="M58.25,116.4a30.81,30.81,0,1,1,30.8-30.8A30.84,30.84,0,0,1,58.25,116.4Zm0-61A30.23,30.23,0,1,0,88.48,85.6,30.26,30.26,0,0,0,58.25,55.37Z"/><path class="cls-1" d="M58.25,116.34a36.05,36.05,0,1,1,36.05-36A36.09,36.09,0,0,1,58.25,116.34Zm0-71.52A35.47,35.47,0,1,0,93.72,80.29,35.51,35.51,0,0,0,58.25,44.82Z"/><rect class="cls-1" x="72.33" y="0.01" width="0.58" height="110.21" transform="translate(-11.86 20.84) rotate(-15.11)"/><rect class="cls-1" x="-9.88" y="53.86" width="108.18" height="0.58" transform="matrix(0.26, -0.97, 0.97, 0.26, -19.56, 82.78)"/><rect class="cls-1" x="17.07" y="61.78" width="111.22" height="0.58" transform="translate(-6.13 116.14) rotate(-74.95)"/><rect class="cls-1" x="43.53" y="6.46" width="0.58" height="111.22" transform="translate(-14.61 13.5) rotate(-15.04)"/><rect class="cls-1" x="6.56" y="72.9" width="110.51" height="0.58" transform="translate(-16.88 18.55) rotate(-15.04)"/><rect class="cls-1" x="61.53" y="-10.75" width="0.58" height="110.51" transform="translate(2.79 92.65) rotate(-74.96)"/><rect class="cls-1" x="54.74" y="17.66" width="0.58" height="111.22" transform="translate(-30.02 107.4) rotate(-74.96)"/><rect class="cls-1" x="-0.59" y="44.12" width="111.22" height="0.58" transform="translate(-9.64 15.8) rotate(-15.04)"/><rect class="cls-1" x="29.49" y="8.36" width="0.58" height="100.52" transform="translate(-0.46 0.24) rotate(-0.45)"/><rect class="cls-1" x="86.7" y="8.36" width="0.58" height="99.35" transform="translate(-0.31 0.47) rotate(-0.31)"/><rect class="cls-1" x="1.44" y="58.77" width="113.73" height="0.58" transform="translate(-21.99 80.03) rotate(-60)"/><rect class="cls-1" x="57.99" y="1.05" width="0.58" height="114.95" transform="translate(-21.45 36.94) rotate(-29.97)"/><rect class="cls-1" x="33.06" y="23.45" width="0.58" height="99.04" transform="translate(-32.17 26.66) rotate(-30.18)"/><rect class="cls-1" x="33.63" y="72.68" width="99.04" height="0.58" transform="translate(-21.74 108.14) rotate(-59.81)"/><rect class="cls-1" x="-7.41" y="47.56" width="110.69" height="0.58" transform="translate(-19.79 48.49) rotate(-45.49)"/><rect class="cls-1" x="68.47" y="-7.04" width="0.58" height="110.15" transform="translate(-13.96 61.93) rotate(-44.48)"/></g></g></svg>