<svg xmlns="http://www.w3.org/2000/svg" viewBox="0 0 116.5 116.5"><defs><style>.cls-1{fill:#fff;}</style></defs><g id="Layer_2" data-name="Layer 2"><g id="Layer_3" data-name="Layer 3"><path class="cls-1" d="M58.25,70.53,24.56,12.17H91.94ZM25.43,12.68,58.25,69.52,91.07,12.68Z"/><path class="cls-1" d="M58.25,105.76a.63.63,0,0,1-.55-.32L4,12.49a.6.6,0,0,1,0-.63.63.63,0,0,1,.54-.31H111.92a.63.63,0,0,1,.54.31.64.64,0,0,1,0,.63l-53.67,93A.62.62,0,0,1,58.25,105.76ZM5.67,12.8l52.58,91.07L110.83,12.8Z"/><path class="cls-1" d="M58.29,84.6,24.6,26.24H92ZM25.47,26.74,58.29,83.59,91.11,26.74Z"/><path class="cls-1" d="M111.92,105.76H4.58a.62.62,0,0,1-.54-.32.58.58,0,0,1,0-.62l53.66-93a.65.65,0,0,1,.55-.31.63.63,0,0,1,.54.31l53.63,92.89a.65.65,0,0,1,.13.38A.63.63,0,0,1,111.92,105.76ZM5.67,104.5H110.83L58.25,13.43Z"/><path class="cls-1" d="M92,91.06H24.6L58.29,32.71Zm-66.51-.5H91.11L58.29,33.71Z"/><path class="cls-1" d="M91.94,105.13H24.56L58.25,46.78Zm-66.51-.5H91.07L58.25,47.78Z"/><path class="cls-1" d="M58.25,105.39a46.61,46.61,0,1,1,46.61-46.61A46.66,46.66,0,0,1,58.25,105.39Zm0-92.72a46.11,46.11,0,1,0,46.11,46.11A46.16,46.16,0,0,0,58.25,12.67Z"/><path class="cls-1" d="M58.25,116.5A58.25,58.25,0,0,1,17.06,17.06,58.25,58.25,0,0,1,99.44,99.44,57.89,57.89,0,0,1,58.25,116.5Zm0-115.24a57,57,0,1,0,57,57A57,57,0,0,0,58.25,1.26Z"/></g></g></svg>