<svg xmlns="http://www.w3.org/2000/svg" viewBox="0 0 116.5 116.5"><defs><style>.cls-1{fill:#fff;}</style></defs><g id="Layer_2" data-name="Layer 2"><g id="Layer_1-2" data-name="Layer 1"><path class="cls-1" d="M62.58,66H53.67l-4.46-7.72,4.46-7.72h8.91L67,58.23ZM54,65.32h8.19l4.09-7.09-4.09-7.09H54l-4.09,7.09Z"/><rect class="cls-1" x="80.69" y="36.86" width="0.59" height="38.35" transform="matrix(0.26, -0.97, 0.97, 0.26, 5.84, 119.68)"/><polygon class="cls-1" points="100.04 61.82 99.78 61.8 66.84 58.29 66.9 57.7 99.58 61.18 106.83 27.67 73.3 20.17 62.16 51.2 61.61 51 72.91 19.48 107.54 27.22 107.47 27.5 100.04 61.82"/><rect class="cls-1" x="59.44" y="38.81" width="50.59" height="0.59" transform="translate(-8.49 43.48) rotate(-27.46)"/><rect class="cls-1" x="61.76" y="42.47" width="50.59" height="0.59" transform="translate(-8.12 61.47) rotate(-37.28)"/><rect class="cls-1" x="50.82" y="38.65" width="38.66" height="0.59" transform="translate(19.85 101.47) rotate(-80.22)"/><rect class="cls-1" x="86.33" y="16.08" width="0.59" height="49.25" transform="translate(-8.33 52.71) rotate(-32.37)"/><rect class="cls-1" x="79.1" y="30.71" width="15.82" height="0.59" transform="translate(37.71 109.12) rotate(-77.36)"/><rect class="cls-1" x="95.04" y="36.23" width="0.59" height="15.82" transform="translate(31.42 127.52) rotate(-77.37)"/><rect class="cls-1" x="77.72" y="29.65" width="0.59" height="14.89" transform="translate(24.76 105.12) rotate(-77.37)"/><rect class="cls-1" x="78.71" y="49.25" width="14.61" height="0.59" transform="translate(18.85 122.63) rotate(-77.36)"/><polygon class="cls-1" points="49.41 58.23 46.61 33.19 45.39 19.56 45.98 19.51 47.2 33.13 49.99 58.16 49.41 58.23"/><polygon class="cls-1" points="15.87 58.8 11.2 23.63 11.49 23.59 46.27 18.74 54.39 51.13 53.82 51.27 45.82 19.4 11.86 24.14 16.38 58.2 49.34 57.96 49.35 58.55 15.87 58.8"/><rect class="cls-1" x="30.18" y="15.48" width="0.59" height="51.12" transform="translate(-20.4 36.09) rotate(-47.84)"/><rect class="cls-1" x="32.56" y="12.2" width="0.59" height="50.59" transform="translate(-16.43 45) rotate(-57.44)"/><rect class="cls-1" x="15.76" y="54.39" width="38.66" height="0.59" transform="translate(-9.27 7.21) rotate(-10.38)"/><rect class="cls-1" x="6.43" y="38.32" width="49.25" height="0.59" transform="translate(-18.48 39.78) rotate(-52.53)"/><rect class="cls-1" x="13.92" y="41.3" width="15.82" height="0.59" transform="translate(-5.26 3.22) rotate(-7.52)"/><rect class="cls-1" x="30.99" y="21.35" width="0.59" height="15.82" transform="translate(-3.56 4.35) rotate(-7.53)"/><rect class="cls-1" x="30.35" y="40.49" width="0.59" height="14.89" transform="translate(-6.02 4.43) rotate(-7.53)"/><rect class="cls-1" x="32.26" y="35.84" width="14.61" height="0.59" transform="translate(-4.39 5.49) rotate(-7.52)"/><rect class="cls-1" x="49.12" y="37.56" width="38.35" height="0.59" transform="translate(-7.61 56.19) rotate(-42.58)"/><polygon class="cls-1" points="53.67 51.53 33.1 25.1 33.29 24.91 58.18 0 83.39 24.86 62.63 51.01 62.17 50.64 82.6 24.91 58.18 0.83 33.89 25.15 54.14 51.16 53.67 51.53"/><rect class="cls-1" x="30.72" y="25.33" width="50.6" height="0.59" transform="matrix(0.09, -1, 1, 0.09, 25.67, 79.22)"/><rect class="cls-1" x="60.05" y="0.32" width="0.59" height="50.6" transform="translate(-1.97 5.26) rotate(-4.91)"/><rect class="cls-1" x="47.77" y="18.53" width="0.59" height="38.66" transform="translate(-12.25 48.08) rotate(-47.85)"/><rect class="cls-1" x="33.74" y="24.59" width="49.25" height="0.59"/><rect class="cls-1" x="50.09" y="11.46" width="0.59" height="15.82" transform="translate(1.06 41.3) rotate(-45)"/><rect class="cls-1" x="58.03" y="19.07" width="15.82" height="0.59" transform="translate(5.62 52.3) rotate(-45.01)"/><rect class="cls-1" x="43.27" y="29.93" width="14.89" height="0.59" transform="translate(-6.52 44.71) rotate(-45)"/><rect class="cls-1" x="65.21" y="22.82" width="0.59" height="14.61" transform="translate(-2.11 55.15) rotate(-45)"/><rect class="cls-1" x="68" y="59.47" width="0.59" height="38.35" transform="translate(-35.82 75.73) rotate(-47.43)"/><polygon class="cls-1" points="58.18 116.5 57.97 116.29 33.1 91.4 53.67 64.97 54.14 65.33 33.89 91.35 58.18 115.66 82.6 91.59 62.17 65.85 62.63 65.48 83.39 91.64 83.2 91.83 58.18 116.5"/><rect class="cls-1" x="55.72" y="65.58" width="0.59" height="50.6" transform="translate(-7.57 5.13) rotate(-4.91)"/><rect class="cls-1" x="35.05" y="90.58" width="50.6" height="0.59" transform="translate(-35.39 143.17) rotate(-85.06)"/><rect class="cls-1" x="28.74" y="78.35" width="38.66" height="0.59" transform="translate(-40.34 52.59) rotate(-42.15)"/><rect class="cls-1" x="50.42" y="78.83" width="0.59" height="14.89" transform="translate(-46.15 61.13) rotate(-45)"/><rect class="cls-1" x="58.2" y="86.08" width="14.61" height="0.59" transform="translate(-41.89 71.64) rotate(-45.01)"/><rect class="cls-1" x="78.35" y="49.12" width="0.59" height="38.35" transform="translate(-25.47 71.21) rotate(-42.57)"/><polygon class="cls-1" points="91.64 83.39 65.49 62.63 65.85 62.17 91.59 82.6 115.66 58.18 91.35 33.89 65.33 54.14 64.97 53.67 91.4 33.1 91.58 33.29 116.5 58.18 91.64 83.39"/><rect class="cls-1" x="90.58" y="30.72" width="0.59" height="50.6" transform="translate(27.29 141.76) rotate(-85.09)"/><rect class="cls-1" x="65.58" y="60.05" width="50.6" height="0.59" transform="translate(-4.81 7.97) rotate(-4.89)"/><rect class="cls-1" x="59.31" y="47.77" width="38.66" height="0.59" transform="matrix(0.67, -0.74, 0.74, 0.67, -9.77, 74.11)"/><rect class="cls-1" x="91.32" y="33.74" width="0.59" height="49.25"/><rect class="cls-1" x="89.22" y="50.09" width="15.82" height="0.59" transform="translate(-7.18 83.45) rotate(-45.01)"/><rect class="cls-1" x="96.83" y="58.03" width="0.59" height="15.82" transform="translate(-18.17 87.99) rotate(-45)"/><rect class="cls-1" x="85.98" y="43.27" width="0.59" height="14.89" transform="translate(-10.59 75.86) rotate(-45)"/><rect class="cls-1" x="79.06" y="65.21" width="14.61" height="0.59" transform="translate(-21.02 80.26) rotate(-45)"/><rect class="cls-1" x="18.68" y="68" width="38.35" height="0.59" transform="translate(-38.04 49.95) rotate(-47.41)"/><polygon class="cls-1" points="24.86 83.39 0 58.18 0.21 57.97 25.1 33.1 51.53 53.67 51.16 54.14 25.15 33.89 0.83 58.18 24.91 82.6 50.64 62.17 51.01 62.63 24.86 83.39"/><rect class="cls-1" x="0.32" y="55.72" width="50.59" height="0.59" transform="translate(-4.69 2.39) rotate(-4.9)"/><rect class="cls-1" x="25.33" y="35.05" width="0.59" height="50.59" transform="translate(-36.69 80.71) rotate(-85.09)"/><rect class="cls-1" x="37.56" y="28.74" width="0.59" height="38.66" transform="translate(-22.47 37.84) rotate(-42.15)"/><rect class="cls-1" x="24.59" y="33.74" width="0.59" height="49.25"/><rect class="cls-1" x="19.07" y="42.48" width="0.59" height="15.82" transform="translate(-29.96 28.45) rotate(-45)"/><rect class="cls-1" x="11.46" y="65.64" width="15.82" height="0.59" transform="translate(-40.95 33.01) rotate(-45.01)"/><rect class="cls-1" x="22.78" y="50.42" width="14.89" height="0.59" transform="translate(-27.01 36.22) rotate(-45)"/><rect class="cls-1" x="29.83" y="58.2" width="0.59" height="14.61" transform="translate(-37.5 40.49) rotate(-45)"/><rect class="cls-1" x="61.81" y="60.17" width="38.35" height="0.59" transform="translate(-12.92 23.1) rotate(-15.05)"/><polygon class="cls-1" points="72.91 97.01 72.83 96.77 61.61 65.5 62.16 65.3 73.3 96.32 106.83 88.83 99.58 55.32 66.9 58.79 66.84 58.2 100.04 54.67 107.54 89.28 107.25 89.34 72.91 97.01"/><rect class="cls-1" x="84.44" y="52.09" width="0.59" height="50.59" transform="translate(-23.01 116.88) rotate(-62.54)"/><rect class="cls-1" x="86.76" y="48.43" width="0.59" height="50.59" transform="translate(-24.34 98.33) rotate(-52.72)"/><rect class="cls-1" x="69.86" y="58.22" width="0.59" height="38.66" transform="translate(-12.15 13.04) rotate(-9.78)"/><rect class="cls-1" x="62" y="75.5" width="49.25" height="0.59" transform="translate(-23.76 108.42) rotate(-57.65)"/><rect class="cls-1" x="86.71" y="77.58" width="0.59" height="15.82" transform="translate(-16.58 21.09) rotate(-12.63)"/><rect class="cls-1" x="87.43" y="72.06" width="15.82" height="0.59" transform="translate(-13.52 22.61) rotate(-12.64)"/><rect class="cls-1" x="70.57" y="79.1" width="14.89" height="0.59" transform="translate(-15.48 18.99) rotate(-12.63)"/><rect class="cls-1" x="85.72" y="59.65" width="0.59" height="14.61" transform="translate(-12.56 20.42) rotate(-12.63)"/><polygon class="cls-1" points="45.98 96.99 45.39 96.94 46.61 83.31 49.41 58.27 49.99 58.33 47.2 83.37 45.98 96.99"/><polygon class="cls-1" points="46.27 97.76 11.2 92.87 15.87 57.7 16.13 57.7 49.35 57.94 49.34 58.53 16.38 58.29 11.86 92.36 45.82 97.1 53.82 65.22 54.39 65.37 46.27 97.76"/><rect class="cls-1" x="4.92" y="75.16" width="51.12" height="0.59" transform="translate(-42.77 40.01) rotate(-42.18)"/><rect class="cls-1" x="7.55" y="78.7" width="50.59" height="0.59" transform="translate(-37.36 30.11) rotate(-32.57)"/><rect class="cls-1" x="34.8" y="42.49" width="0.59" height="38.66" transform="translate(-32.03 85.2) rotate(-79.63)"/><rect class="cls-1" x="30.77" y="53.25" width="0.59" height="49.25" transform="translate(-40.97 34.97) rotate(-37.47)"/><rect class="cls-1" x="21.53" y="66.99" width="0.59" height="15.82" transform="translate(-55.29 86.73) rotate(-82.47)"/><rect class="cls-1" x="23.38" y="86.95" width="15.82" height="0.59" transform="translate(-59.3 106.84) rotate(-82.48)"/><rect class="cls-1" x="23.2" y="68.26" width="14.89" height="0.59" transform="translate(-41.34 89.96) rotate(-82.48)"/><rect class="cls-1" x="39.27" y="73.05" width="0.59" height="14.61" transform="translate(-45.28 109.06) rotate(-82.47)"/></g></g></svg>