<?xml version="1.0" standalone="no"?>
<!DOCTYPE svg PUBLIC "-//W3C//DTD SVG 20010904//EN"
 "http://www.w3.org/TR/2001/REC-SVG-20010904/DTD/svg10.dtd">
<svg version="1.0" xmlns="http://www.w3.org/2000/svg"
 width="544.000000pt" height="544.000000pt" viewBox="0 0 544.000000 544.000000"
 preserveAspectRatio="xMidYMid meet">
<metadata>
Created by potrace 1.14, written by Peter Selinger 2001-2017
</metadata>
<g transform="translate(0.000000,544.000000) scale(0.100000,-0.100000)"
fill="#000000" stroke="none">
<path d="M2386 5424 c-1165 -149 -2103 -1018 -2336 -2162 -68 -336 -68 -748 0
-1084 217 -1067 1061 -1911 2128 -2128 336 -68 748 -68 1084 0 1067 217 1911
1061 2128 2128 51 255 66 610 35 862 -145 1173 -1013 2116 -2163 2350 -250 50
-630 65 -876 34z m844 -613 c354 -38 613 -103 827 -209 190 -94 413 -275 556
-451 200 -249 371 -612 422 -901 4 -19 13 -70 20 -114 28 -155 40 -412 26
-578 -37 -468 -138 -775 -369 -1123 -67 -102 -116 -159 -222 -266 -136 -136
-227 -207 -375 -291 -214 -121 -512 -201 -890 -239 -65 -6 -450 -13 -937 -16
l-828 -5 0 215 0 215 838 5 c962 6 1015 9 1307 83 414 106 709 375 914 835
128 288 172 732 110 1119 -88 550 -448 1029 -889 1183 -96 33 -212 63 -320 81
-205 35 -331 40 -935 41 l-600 0 0 -1300 0 -1300 560 -3 c591 -3 749 4 914 39
173 38 273 98 365 222 140 187 196 381 196 678 0 218 -30 368 -106 522 -76
154 -188 275 -299 322 -66 27 -185 53 -325 70 -110 14 -217 17 -575 16 -242
-1 -470 1 -507 5 l-68 7 0 209 0 210 573 -5 c471 -3 591 -7 677 -21 356 -56
515 -128 691 -313 186 -194 295 -422 351 -733 20 -113 18 -499 -4 -615 -62
-326 -217 -614 -422 -784 -141 -116 -281 -175 -506 -216 -227 -41 -327 -45
-1152 -45 l-788 0 0 1736 0 1736 833 -5 c515 -3 872 -9 937 -16z m-1930 -933
l0 -213 -72 0 -73 0 -3 -1152 -2 -1153 -215 0 -215 0 0 1365 0 1365 290 0 290
0 0 -212z"/>
</g>
</svg>
