<?xml version="1.0" standalone="no"?>
<!DOCTYPE svg PUBLIC "-//W3C//DTD SVG 20010904//EN"
 "http://www.w3.org/TR/2001/REC-SVG-20010904/DTD/svg10.dtd">
<svg version="1.0" xmlns="http://www.w3.org/2000/svg"
 width="1490.000000pt" height="1490.000000pt" viewBox="0 0 1490.000000 1490.000000"
 preserveAspectRatio="xMidYMid meet">
<metadata>
Created by potrace 1.14, written by Peter Selinger 2001-2017
</metadata>
<g transform="translate(0.000000,1490.000000) scale(0.100000,-0.100000)"
fill="#000000" stroke="none">
<path d="M3495 14739 c-515 -56 -932 -177 -1368 -396 -707 -354 -1336 -1019
-1660 -1753 -173 -393 -267 -761 -306 -1190 -15 -155 -15 -7613 -1 -7825 28
-420 119 -815 271 -1179 536 -1276 1731 -2140 3094 -2236 103 -8 1362 -10
4035 -8 4311 4 3924 -2 4275 69 711 143 1326 471 1843 982 293 289 517 596
698 954 226 446 349 899 384 1408 13 203 14 7453 0 7695 -22 380 -80 692 -188
1010 -135 396 -344 778 -611 1115 -133 167 -399 433 -570 568 -136 108 -327
240 -456 314 -358 207 -828 371 -1250 437 -308 48 -107 46 -4240 45 -2128 -1
-3906 -6 -3950 -10z"/>
</g>
</svg>
